<?xml version="1.0" standalone="no"?><!DOCTYPE svg PUBLIC "-//W3C//DTD SVG 1.1//EN" "http://www.w3.org/Graphics/SVG/1.1/DTD/svg11.dtd"><svg t="1636731588591" class="icon" viewBox="0 0 1024 1024" version="1.1" xmlns="http://www.w3.org/2000/svg" p-id="1839" width="32" height="32" xmlns:xlink="http://www.w3.org/1999/xlink"><defs><style type="text/css"></style></defs><path d="M864.00544 500.32V928H32.00544V448.48c0.32-21.632-32.32-21.632-32 0v495.488a16 16 0 0 0 16 16h864a16 16 0 0 0 16-16V492.544m0-182.624V80a16 16 0 0 0-16-16H16.00544a16 16 0 0 0-16 16V305.28c-0.32 21.664 32.32 21.664 32 0V96h832v220.992M15.74944 352.352a15.904 15.904 0 0 0-15.744 16.256V394.048c-0.32 21.632 32.32 21.632 32 0V368.608a16 16 0 0 0-16.256-16.256z" fill="#2B4255" p-id="1840"></path><path d="M16.00544 192v32h864V192H16.00544z" fill="#2B4255" p-id="1841"></path><path d="M96.00544 144a16 16 0 0 1-16 16 16 16 0 0 1-16-16 16 16 0 0 1 16-16 16 16 0 0 1 16 16z m64 0a16 16 0 0 1-16 16 16 16 0 0 1-16-16 16 16 0 0 1 16-16 16 16 0 0 1 16 16z m64 0a16 16 0 0 1-16 16 16 16 0 0 1-16-16 16 16 0 0 1 16-16 16 16 0 0 1 16 16z" fill="#F05542" p-id="1842"></path><path d="M214.08544 681.216a16 16 0 0 0-12.512 7.136l-99.584 150.816a16 16 0 0 0 14.336 24.8l180.352-10.816a16 16 0 0 0 12.896-24l-80.832-139.936a16 16 0 0 0-14.688-8z m-0.064 46.4l54.912 95.168-122.624 7.328 67.712-102.496z" fill="#F05542" p-id="1843"></path><path d="M838.11744 320.928a16 16 0 0 0-7.168 2.112L206.88544 683.36a16 16 0 0 0-5.824 21.856l80.832 139.936a16 16 0 0 0 21.856 5.888l624-360.32a16 16 0 0 0 5.888-21.824l-80.832-140a16 16 0 0 0-14.688-8z m-5.056 37.856l64.832 112.256L301.57344 815.36l-64.832-112.32 596.32-344.256z" fill="#F05542" p-id="1844"></path><path d="M941.57344 285.152a76.416 76.416 0 0 0-58.144 7.584l-52.48 30.304a16 16 0 0 0-5.888 21.888l80.832 140a16 16 0 0 0 21.856 5.792l52.48-30.304c26.368-15.232 41.024-33.024 43.392-52.864 2.368-19.84-6.528-36.544-15.296-51.744l-20.256-35.008c-10.56-18.24-27.52-30.56-46.496-35.648z m-8.256 30.72c10.976 2.912 20.8 10.112 27.072 20.928l20.16 35.008c8 13.856 12.16 24.608 11.264 31.936-0.864 7.296-5.696 16.352-27.552 28.992l-38.624 22.304-64.832-112.256 38.624-22.304a44.384 44.384 0 0 1 33.888-4.64z" fill="#F05542" p-id="1845"></path><path d="M880.99744 385.056L255.94144 749.12l16.128 27.712 625.056-364.192-16.128-27.616z" fill="#F05542" p-id="1846"></path></svg>